<mxfile host="app.diagrams.net" agent="Mozilla/5.0 (Windows NT 10.0; Win64; x64) AppleWebKit/537.36 (KHTML, like Gecko) Chrome/137.0.0.0 Safari/537.36" version="27.1.4">
  <diagram name="Page-1" id="Ca336kPlWf0jyKN8qKug">
    <mxGraphModel dx="1213" dy="663" grid="1" gridSize="10" guides="1" tooltips="1" connect="1" arrows="1" fold="1" page="1" pageScale="1" pageWidth="1080" pageHeight="1920" math="0" shadow="0">
      <root>
        <mxCell id="0" />
        <mxCell id="1" parent="0" />
        <mxCell id="GvPw1lgdcDP5bG48qOIu-3" value="&lt;font style=&quot;font-size: 15px;&quot;&gt;&lt;u&gt;UserID&lt;/u&gt;&lt;/font&gt;" style="whiteSpace=wrap;html=1;aspect=fixed;" vertex="1" parent="1">
          <mxGeometry x="185" y="160" width="110" height="110" as="geometry" />
        </mxCell>
        <mxCell id="GvPw1lgdcDP5bG48qOIu-4" value="&lt;font style=&quot;font-size: 15px;&quot;&gt;&lt;u&gt;UserName&lt;/u&gt;&lt;/font&gt;" style="whiteSpace=wrap;html=1;aspect=fixed;" vertex="1" parent="1">
          <mxGeometry x="295" y="160" width="110" height="110" as="geometry" />
        </mxCell>
        <mxCell id="GvPw1lgdcDP5bG48qOIu-5" value="&lt;font style=&quot;font-size: 15px;&quot;&gt;FirstName&lt;/font&gt;" style="whiteSpace=wrap;html=1;aspect=fixed;" vertex="1" parent="1">
          <mxGeometry x="405" y="160" width="110" height="110" as="geometry" />
        </mxCell>
        <mxCell id="GvPw1lgdcDP5bG48qOIu-6" value="&lt;font style=&quot;font-size: 15px;&quot;&gt;LastName&lt;/font&gt;" style="whiteSpace=wrap;html=1;aspect=fixed;" vertex="1" parent="1">
          <mxGeometry x="515" y="160" width="110" height="110" as="geometry" />
        </mxCell>
        <mxCell id="GvPw1lgdcDP5bG48qOIu-7" value="&lt;font style=&quot;font-size: 15px;&quot;&gt;Email&lt;/font&gt;" style="whiteSpace=wrap;html=1;aspect=fixed;" vertex="1" parent="1">
          <mxGeometry x="625" y="160" width="110" height="110" as="geometry" />
        </mxCell>
        <mxCell id="GvPw1lgdcDP5bG48qOIu-8" value="&lt;font style=&quot;font-size: 15px;&quot;&gt;Password&lt;/font&gt;" style="whiteSpace=wrap;html=1;aspect=fixed;" vertex="1" parent="1">
          <mxGeometry x="735" y="160" width="110" height="110" as="geometry" />
        </mxCell>
        <mxCell id="GvPw1lgdcDP5bG48qOIu-9" value="&lt;font style=&quot;font-size: 15px;&quot;&gt;Deleted&lt;/font&gt;" style="whiteSpace=wrap;html=1;aspect=fixed;" vertex="1" parent="1">
          <mxGeometry x="845" y="160" width="110" height="110" as="geometry" />
        </mxCell>
        <mxCell id="GvPw1lgdcDP5bG48qOIu-10" value="&lt;font style=&quot;font-size: 16px;&quot;&gt;USER&lt;/font&gt;" style="text;strokeColor=none;align=center;fillColor=none;html=1;verticalAlign=middle;whiteSpace=wrap;rounded=0;" vertex="1" parent="1">
          <mxGeometry x="185" y="120" width="60" height="30" as="geometry" />
        </mxCell>
        <mxCell id="GvPw1lgdcDP5bG48qOIu-11" value="&lt;span style=&quot;font-size: 15px;&quot;&gt;&lt;u&gt;FollowerID&lt;/u&gt;&lt;/span&gt;" style="whiteSpace=wrap;html=1;aspect=fixed;" vertex="1" parent="1">
          <mxGeometry x="90" y="410" width="110" height="110" as="geometry" />
        </mxCell>
        <mxCell id="GvPw1lgdcDP5bG48qOIu-12" value="&lt;font style=&quot;font-size: 15px;&quot;&gt;&lt;u&gt;UserID(FK)&lt;/u&gt;&lt;/font&gt;" style="whiteSpace=wrap;html=1;aspect=fixed;" vertex="1" parent="1">
          <mxGeometry x="200" y="410" width="110" height="110" as="geometry" />
        </mxCell>
        <mxCell id="GvPw1lgdcDP5bG48qOIu-20" style="edgeStyle=orthogonalEdgeStyle;rounded=0;orthogonalLoop=1;jettySize=auto;html=1;exitX=0.5;exitY=0;exitDx=0;exitDy=0;" edge="1" parent="1" source="GvPw1lgdcDP5bG48qOIu-13" target="GvPw1lgdcDP5bG48qOIu-3">
          <mxGeometry relative="1" as="geometry">
            <Array as="points">
              <mxPoint x="330" y="410" />
              <mxPoint x="330" y="370" />
              <mxPoint x="240" y="370" />
            </Array>
          </mxGeometry>
        </mxCell>
        <mxCell id="GvPw1lgdcDP5bG48qOIu-13" value="&lt;font style=&quot;font-size: 15px;&quot;&gt;&lt;u&gt;FollowerID(FK)&lt;/u&gt;&lt;/font&gt;" style="whiteSpace=wrap;html=1;aspect=fixed;" vertex="1" parent="1">
          <mxGeometry x="310" y="410" width="110" height="110" as="geometry" />
        </mxCell>
        <mxCell id="GvPw1lgdcDP5bG48qOIu-14" value="&lt;font style=&quot;font-size: 15px;&quot;&gt;FOLLOWER&lt;/font&gt;" style="text;strokeColor=none;align=center;fillColor=none;html=1;verticalAlign=middle;whiteSpace=wrap;rounded=0;" vertex="1" parent="1">
          <mxGeometry x="90" y="360" width="90" height="30" as="geometry" />
        </mxCell>
        <mxCell id="GvPw1lgdcDP5bG48qOIu-18" style="edgeStyle=orthogonalEdgeStyle;rounded=0;orthogonalLoop=1;jettySize=auto;html=1;entryX=0.097;entryY=1.03;entryDx=0;entryDy=0;entryPerimeter=0;" edge="1" parent="1" source="GvPw1lgdcDP5bG48qOIu-12" target="GvPw1lgdcDP5bG48qOIu-3">
          <mxGeometry relative="1" as="geometry">
            <Array as="points">
              <mxPoint x="220" y="340" />
              <mxPoint x="196" y="340" />
            </Array>
          </mxGeometry>
        </mxCell>
        <mxCell id="GvPw1lgdcDP5bG48qOIu-21" value="&lt;span style=&quot;font-size: 15px;&quot;&gt;&lt;u&gt;NoteID&lt;/u&gt;&lt;/span&gt;" style="whiteSpace=wrap;html=1;aspect=fixed;" vertex="1" parent="1">
          <mxGeometry x="540" y="410" width="110" height="110" as="geometry" />
        </mxCell>
        <mxCell id="GvPw1lgdcDP5bG48qOIu-22" value="&lt;font style=&quot;font-size: 15px;&quot;&gt;Content&lt;/font&gt;" style="whiteSpace=wrap;html=1;aspect=fixed;" vertex="1" parent="1">
          <mxGeometry x="650" y="410" width="110" height="110" as="geometry" />
        </mxCell>
        <mxCell id="GvPw1lgdcDP5bG48qOIu-23" value="&lt;font style=&quot;font-size: 15px;&quot;&gt;&lt;u&gt;UserID(FK)&lt;/u&gt;&lt;/font&gt;" style="whiteSpace=wrap;html=1;aspect=fixed;" vertex="1" parent="1">
          <mxGeometry x="760" y="410" width="110" height="110" as="geometry" />
        </mxCell>
        <mxCell id="GvPw1lgdcDP5bG48qOIu-24" value="&lt;font style=&quot;font-size: 15px;&quot;&gt;NOTE&lt;/font&gt;" style="text;strokeColor=none;align=center;fillColor=none;html=1;verticalAlign=middle;whiteSpace=wrap;rounded=0;" vertex="1" parent="1">
          <mxGeometry x="540" y="370" width="90" height="30" as="geometry" />
        </mxCell>
        <mxCell id="GvPw1lgdcDP5bG48qOIu-25" style="edgeStyle=orthogonalEdgeStyle;rounded=0;orthogonalLoop=1;jettySize=auto;html=1;entryX=0.879;entryY=1.006;entryDx=0;entryDy=0;entryPerimeter=0;" edge="1" parent="1" source="GvPw1lgdcDP5bG48qOIu-23" target="GvPw1lgdcDP5bG48qOIu-3">
          <mxGeometry relative="1" as="geometry">
            <Array as="points">
              <mxPoint x="815" y="330" />
              <mxPoint x="282" y="330" />
            </Array>
          </mxGeometry>
        </mxCell>
        <mxCell id="GvPw1lgdcDP5bG48qOIu-26" value="&lt;font style=&quot;font-size: 18px;&quot;&gt;Relations Diagram&lt;/font&gt;" style="text;strokeColor=none;align=center;fillColor=none;html=1;verticalAlign=middle;whiteSpace=wrap;rounded=0;" vertex="1" parent="1">
          <mxGeometry x="440" y="70" width="160" height="30" as="geometry" />
        </mxCell>
      </root>
    </mxGraphModel>
  </diagram>
</mxfile>
